<?xml version="1.0" encoding="utf-8"?>
<svg width="50px" height="50px" viewBox="0 0 50 50" version="1.1" xmlns:xlink="http://www.w3.org/1999/xlink" xmlns="http://www.w3.org/2000/svg">
  <defs>
    <path d="M0 0L50 0L50 50L0 50L0 0Z" id="path_1" />
    <clipPath id="clip_1">
      <use xlink:href="#path_1" />
    </clipPath>
  </defs>
  <g id="Почта" clip-path="url(#clip_1)">
    <path d="M0 0L50 0L50 50L0 50L0 0Z" id="Почта" fill="none" fill-rule="evenodd" stroke="none" />
    <path d="M14 4C8.48867 4 4 8.48867 4 14L4 36C4 41.5113 8.48867 46 14 46L36 46C41.5113 46 46 41.5113 46 36L46 14C46 8.48867 41.5113 4 36 4L14 4L14 4ZM13 16L37 16C37.18 16 37.3498 16.0203 37.5098 16.0703L27.6797 25.8906C26.1997 27.3706 23.7905 27.3706 22.3105 25.8906L12.4902 16.0703C12.6502 16.0203 12.82 16 13 16L13 16ZM11.0703 17.4902L18.5898 25L11.0703 32.5098C11.0203 32.3498 11 32.18 11 32L11 18C11 17.82 11.0203 17.6502 11.0703 17.4902L11.0703 17.4902ZM38.9297 17.4902C38.9797 17.6502 39 17.82 39 18L39 32C39 32.18 38.9797 32.3498 38.9297 32.5098L31.4004 25L38.9297 17.4902L38.9297 17.4902ZM20 26.4102L20.8906 27.3105C22.0206 28.4405 23.5102 29 24.9902 29C26.4802 29 27.9598 28.4405 29.0898 27.3105L29.9902 26.4102L37.5098 33.9297C37.3498 33.9797 37.18 34 37 34L13 34C12.82 34 12.6502 33.9797 12.4902 33.9297L20 26.4102L20 26.4102Z" id="Фигура" fill="#FFFFFF" fill-rule="evenodd" stroke="none" />
  </g>
</svg>