<?xml version="1.0" encoding="utf-8"?>
<svg width="800px" height="800.0108px" viewBox="0 0 800 800.0108" version="1.1" xmlns:xlink="http://www.w3.org/1999/xlink" xmlns="http://www.w3.org/2000/svg">
  <path d="M400 0C620.92 0 800 183.594 800 410.125C800 591.281 685.52 744.969 526.68 799.25C506.4 803.281 499.2 790.5 499.2 779.562C499.2 766.031 499.68 721.875 499.68 667C499.68 628.781 486.88 603.813 472.52 591.062C561.6 580.906 655.2 546.219 655.2 388.719C655.2 343.938 639.68 307.375 614 278.625C618.16 268.281 631.88 226.562 610.08 170.063C610.08 170.063 576.56 159.094 500.2 212.125C468.24 203.062 434 198.469 400 198.313C366 198.469 331.8 203.062 299.88 212.125C223.44 159.094 189.84 170.063 189.84 170.063C168.12 226.562 181.84 268.281 185.96 278.625C160.4 307.375 144.76 343.938 144.76 388.719C144.76 545.844 238.16 581.031 327 591.406C315.56 601.625 305.2 619.719 301.6 646.219C278.8 656.719 220.88 674.844 185.2 612.156C185.2 612.156 164.04 572.75 123.88 569.875C123.88 569.875 84.8801 569.344 121.16 594.813C121.16 594.813 147.36 607.406 165.56 654.813C165.56 654.813 189.04 728 300.32 703.188C300.52 737.469 300.88 769.813 300.88 779.562C300.88 790.375 293.52 803.094 273.56 799.281C114.6 745.063 0 591.313 0 410.125C0 183.594 179.12 0 400 0" id="Page-1" fill="#FFFFFF" fill-rule="evenodd" stroke="none" />
</svg>