<?xml version="1.0" encoding="utf-8"?>
<svg width="48px" height="48px" viewBox="0 0 48 48" version="1.1" xmlns:xlink="http://www.w3.org/1999/xlink" xmlns="http://www.w3.org/2000/svg">
  <defs>
    <path d="M0 0L48 0L48 48L0 48L0 0Z" id="path_1" />
    <clipPath id="clip_1">
      <use xlink:href="#path_1" />
    </clipPath>
  </defs>
  <g id="Телеграмма App" clip-path="url(#clip_1)">
    <path d="M0 0L48 0L48 48L0 48L0 0Z" id="Телеграмма-App" fill="none" fill-rule="evenodd" stroke="none" />
    <path d="M5.82999 23.6162C18.398 18.0872 34.662 11.3462 36.907 10.4132C42.796 7.97117 44.603 8.43917 43.702 13.8472C43.055 17.7342 41.188 30.6032 39.7 38.6132C38.817 43.3632 36.836 43.9262 33.721 41.8712C32.223 40.8822 24.662 35.8822 23.021 34.7082C21.523 33.6382 19.457 32.3512 22.048 29.8162C22.97 28.9132 29.014 23.1422 33.723 18.6502C34.34 18.0602 33.565 17.0912 32.853 17.5642C26.506 21.7732 17.706 27.6152 16.586 28.3762C14.894 29.5252 13.269 30.0522 10.352 29.2142C8.14798 28.5812 5.99498 27.8262 5.15698 27.5382C1.92999 26.4302 2.69599 24.9952 5.82999 23.6162L5.82999 23.6162Z" id="Фигура" fill="#FFFFFF" stroke="none" />
  </g>
</svg>